<svg id="圖層_1" data-name="圖層 1" xmlns="http://www.w3.org/2000/svg" viewBox="0 0 532.72 196.09"><defs><style>.cls-1{fill:#231916;}.cls-2{fill:none;stroke:#000;}.cls-2,.cls-3,.cls-4{stroke-linecap:round;stroke-linejoin:round;stroke-width:0.71px;}.cls-3{fill:#f5e064;}.cls-3,.cls-4{stroke:#f0db69;}.cls-4{fill:#f6e064;}</style></defs><title>工作區域 1</title><g id="LWPOLYLINE"><path class="cls-1" d="M141.13,86.92V92.2H121.64a48,48,0,0,1-12.17,29.37l13.78,13.78-3.73,3.73L105.75,125.3a48,48,0,0,1-29.38,12.17V157H71.09V137.47A48,48,0,0,1,41.72,125.3L27.94,139.08l-3.73-3.73L38,121.57A48,48,0,0,1,25.82,92.2H6.34V86.92H25.82A47.94,47.94,0,0,1,38,57.55L24.21,43.77,27.94,40,41.72,53.81A48.08,48.08,0,0,1,71.09,41.64V22.16h5.28V41.64a48.11,48.11,0,0,1,29.38,12.17L119.52,40l3.73,3.74L109.47,57.55a47.94,47.94,0,0,1,12.17,29.37Zm-24.21,2.63a43.19,43.19,0,1,0-43.19,43.19A43.19,43.19,0,0,0,116.92,89.55Z"/><path class="cls-1" d="M106.11,91a2.4,2.4,0,0,1-.52,3.35l-5.67,4.17A2.4,2.4,0,0,1,96.57,98l-1.63-2.21,1.81-1.32,1.71,2.33,5.93-4.36L98.92,85,78.37,120.57l-21.6-37.4h7.08a.53.53,0,0,0,.35-.94,4,4,0,0,1-1.42-3.06V61.57a4,4,0,0,1,4-4H90a4,4,0,0,1,4,4v.75a.53.53,0,0,1-.36.51l-2.93.94a.36.36,0,0,1-.17,0,.54.54,0,0,1-.54-.53V60.78H67.31a.53.53,0,0,0-.54.53V79.44a.54.54,0,0,0,.54.53H90V72.51a.54.54,0,0,0-.53-.54H78.37v-3.2H93.43a.53.53,0,0,1,.53.54v9.86a4,4,0,0,1-1.42,3.06.53.53,0,0,0,.35.94H100a.84.84,0,0,1,.65.32ZM91.38,89.72A1.59,1.59,0,0,0,90,87.33H66.74a1.6,1.6,0,0,0-1.38,2.39L77,109.86a1.6,1.6,0,0,0,2.18.58,1.64,1.64,0,0,0,.59-.58Z"/><path class="cls-1" d="M52.71,83.17l23.63,40.92-2.4,4.16L52.63,91.33,49.09,85.2l-6.26-1.09-1.56,9,7.38,1.29.47-2.67,2.21.39L51,93.81a3.2,3.2,0,0,1-3.7,2.61l-5.52-1a3.2,3.2,0,0,1-2.6-3.7l1.24-7.09a3.21,3.21,0,0,1,3.71-2.6l6.34,1.11Z"/><path class="cls-2" d="M30.54,89.55a43.19,43.19,0,1,1,43.19,43.19A43.19,43.19,0,0,1,30.54,89.55Z"/><path class="cls-2" d="M123.25,43.77,109.47,57.55a47.94,47.94,0,0,1,12.17,29.37h19.49V92.2H121.64a48,48,0,0,1-12.17,29.37l13.78,13.78-3.73,3.73L105.75,125.3a48,48,0,0,1-29.38,12.17V157H71.09V137.47A48,48,0,0,1,41.72,125.3L27.94,139.08l-3.73-3.73L38,121.57A48,48,0,0,1,25.82,92.2H6.34V86.92H25.82A47.94,47.94,0,0,1,38,57.55L24.21,43.77,27.94,40,41.72,53.81A48.08,48.08,0,0,1,71.09,41.64V22.16h5.28V41.64a48.11,48.11,0,0,1,29.38,12.17L119.52,40Z"/><path class="cls-2" d="M52.63,91.33l21.31,36.92,2.4-4.16L52.71,83.17H50.5l-6.34-1.11a3.21,3.21,0,0,0-3.71,2.6l-1.24,7.09a3.2,3.2,0,0,0,2.6,3.7l5.52,1A3.2,3.2,0,0,0,51,93.81l.3-1.73-2.21-.39-.47,2.67-7.38-1.29,1.56-9,6.26,1.09Z"/><path class="cls-2" d="M65.36,89.72,77,109.86a1.6,1.6,0,0,0,2.18.58,1.64,1.64,0,0,0,.59-.58L91.38,89.72A1.59,1.59,0,0,0,90,87.33H66.74a1.6,1.6,0,0,0-1.38,2.39Z"/><path class="cls-2" d="M106.11,91a2.4,2.4,0,0,1-.52,3.35l-5.67,4.17A2.4,2.4,0,0,1,96.57,98l-1.63-2.21,1.81-1.32,1.71,2.33,5.93-4.36L98.92,85,78.37,120.57l-21.6-37.4h7.08a.53.53,0,0,0,.35-.94,4,4,0,0,1-1.42-3.06V61.57a4,4,0,0,1,4-4H90a4,4,0,0,1,4,4v.75a.53.53,0,0,1-.36.51l-2.93.94a.36.36,0,0,1-.17,0,.54.54,0,0,1-.54-.53V60.78H67.31a.53.53,0,0,0-.54.53V79.44a.54.54,0,0,0,.54.53H90V72.51a.54.54,0,0,0-.53-.54H78.37v-3.2H93.43a.53.53,0,0,1,.53.54v9.86a4,4,0,0,1-1.42,3.06.53.53,0,0,0,.35.94H100a.84.84,0,0,1,.65.32Z"/></g><g id="LINE"><polygon class="cls-3" points="504.55 129.13 521.13 67.27 497.93 67.27 512.43 13.14 448.25 13.14 402.66 183.27 466.85 183.27 481.35 129.13 504.55 129.13"/></g><g id="LINE-2" data-name="LINE"><polygon class="cls-3" points="394.81 183.27 334.49 183.27 380.08 13.14 440.4 13.14 394.81 183.27"/></g><g id="LINE-3" data-name="LINE"><polygon class="cls-3" points="327.86 183.27 267.54 183.27 313.13 13.14 373.45 13.14 327.86 183.27"/></g><g id="LINE-4" data-name="LINE"><polygon class="cls-4" points="126.59 183.27 190.77 183.27 236.36 13.14 172.17 13.14 126.59 183.27"/></g><g id="LINE-5" data-name="LINE"><polygon class="cls-3" points="258.82 183.27 198.5 183.27 244.09 13.14 304.41 13.14 258.82 183.27"/></g><g id="LWPOLYLINE-2" data-name="LWPOLYLINE"><path class="cls-1" d="M412.12,49.66V96.53a8.67,8.67,0,0,1-8.68,8.47H387a8.68,8.68,0,0,1-8.69-8.68v-15l8.39-3.46v16a1.74,1.74,0,0,0,1.73,1.74h13.38a1.75,1.75,0,0,0,1.74-1.74h0l-.15-44.22Z"/><path class="cls-1" d="M388.32,128.4V138a4.75,4.75,0,0,1-4.74,4.75H371v11.85h-4.24V123.67h16.81A4.73,4.73,0,0,1,388.32,128.4Zm-4.06,7.3v-4.95a1.9,1.9,0,0,0-1.9-1.9H371.27v8.74h11.09A1.9,1.9,0,0,0,384.26,135.7Z"/><path class="cls-1" d="M368.24,57.91v9l-8,1.71V60.54a1.74,1.74,0,0,0-1.74-1.74H338.21a1.74,1.74,0,0,0-1.74,1.74V92.82a1.73,1.73,0,0,0,1.74,1.74h19.71a1.73,1.73,0,0,0,1.74-1.74V83.69l8.21,2.2V96.32a8.68,8.68,0,0,1-8.69,8.68H336a8.68,8.68,0,0,1-8.69-8.68V57.91A8.69,8.69,0,0,1,336,49.22h23.56A8.68,8.68,0,0,1,368.24,57.91Z"/><path class="cls-1" d="M361.08,123.84v26a4.75,4.75,0,0,1-4.75,4.75H343.22a4.75,4.75,0,0,1-4.74-4.75v-26H343v23.28a1.9,1.9,0,0,0,1.9,1.9h9.71a1.9,1.9,0,0,0,1.9-1.9V123.84Z"/><path class="cls-1" d="M332.79,128.4v21.41a4.74,4.74,0,0,1-4.74,4.74H312.68a4.74,4.74,0,0,1-4.74-4.74V128.4a4.73,4.73,0,0,1,4.74-4.73h15.37A4.73,4.73,0,0,1,332.79,128.4Zm-4.74,19.51V130.3a1.91,1.91,0,0,0-1.9-1.9H314.58a1.91,1.91,0,0,0-1.9,1.9v17.61a1.9,1.9,0,0,0,1.9,1.9h11.57A1.9,1.9,0,0,0,328.05,147.91Z"/><path class="cls-1" d="M316.88,72.56V96.32A8.67,8.67,0,0,1,308.2,105H282a8.67,8.67,0,0,1-8.68-8.68V57.15A8.68,8.68,0,0,1,282,48.46H308.2a8.68,8.68,0,0,1,8.68,8.69v4.54l-7.08,2.59-.14-4.22a1.73,1.73,0,0,0-1.73-1.68H283.71A1.74,1.74,0,0,0,282,60.12V93.38a1.73,1.73,0,0,0,1.74,1.73h23.53A1.73,1.73,0,0,0,309,93.38V82.93a1.74,1.74,0,0,0-1.74-1.74H296.4V72.56Z"/><path class="cls-1" d="M294.35,142.66l9.86,11.89h-6.89l-8.24-12h-4.34v12H280V123.89l17.49-.13h0a4.74,4.74,0,0,1,4.74,4.74v9.42a4.74,4.74,0,0,1-4.74,4.74Zm2.87-6.83v-4.58a1.9,1.9,0,0,0-1.9-1.9H284.73v8.38h10.59A1.9,1.9,0,0,0,297.22,135.83Z"/><path class="cls-1" d="M274.76,128.33V131l-4.31,1.15-.09-2.35a.94.94,0,0,0-.95-.9h-13a.94.94,0,0,0-1,.94v17.68a.94.94,0,0,0,1,.95h13a.94.94,0,0,0,.95-.95v-4.85a1,1,0,0,0-.95-.95h-7.24v-5.15h12.16v13.24a4.74,4.74,0,0,1-4.74,4.74H255.44a4.75,4.75,0,0,1-4.75-4.74V128.33a4.75,4.75,0,0,1,4.75-4.75H270A4.75,4.75,0,0,1,274.76,128.33Z"/><polygon class="cls-1" points="267.31 49.18 247.8 105 240.05 105 219.86 49.26 230.28 49.26 244.46 90.03 259 49.18 267.31 49.18"/><polygon class="cls-2" points="247.8 105 267.31 49.18 259 49.18 244.46 90.03 230.28 49.26 219.86 49.26 240.05 105 247.8 105"/><path class="cls-2" d="M368.24,57.91v9l-8,1.71V60.54a1.74,1.74,0,0,0-1.74-1.74H338.21a1.74,1.74,0,0,0-1.74,1.74V92.82a1.73,1.73,0,0,0,1.74,1.74h19.71a1.73,1.73,0,0,0,1.74-1.74V83.69l8.21,2.2V96.32a8.68,8.68,0,0,1-8.69,8.68H336a8.68,8.68,0,0,1-8.69-8.68V57.91A8.69,8.69,0,0,1,336,49.22h23.56A8.68,8.68,0,0,1,368.24,57.91Z"/><path class="cls-2" d="M309.8,64.28l7.08-2.59V57.15a8.68,8.68,0,0,0-8.68-8.69H282a8.68,8.68,0,0,0-8.68,8.69V96.32A8.67,8.67,0,0,0,282,105H308.2a8.67,8.67,0,0,0,8.68-8.68V72.56H296.4v8.63h10.84A1.74,1.74,0,0,1,309,82.93V93.38a1.73,1.73,0,0,1-1.74,1.73H283.71A1.73,1.73,0,0,1,282,93.38V60.12a1.74,1.74,0,0,1,1.74-1.74h24.22a1.73,1.73,0,0,1,1.73,1.68Z"/><path class="cls-2" d="M269.41,128.9h-13a.94.94,0,0,0-1,.94v17.68a.94.94,0,0,0,1,.95h13a.94.94,0,0,0,.95-.95v-4.85a1,1,0,0,0-.95-.95h-7.24v-5.15h12.16v13.24a4.74,4.74,0,0,1-4.74,4.74H255.44a4.75,4.75,0,0,1-4.75-4.74V128.33a4.75,4.75,0,0,1,4.75-4.75H270a4.75,4.75,0,0,1,4.74,4.75V131l-4.31,1.15-.09-2.35A.94.94,0,0,0,269.41,128.9Z"/><path class="cls-2" d="M302.25,128.5v9.42a4.74,4.74,0,0,1-4.74,4.74h-3.16l9.86,11.89h-6.89l-8.24-12h-4.34v12H280V123.89l17.49-.13h0A4.74,4.74,0,0,1,302.25,128.5Z"/><path class="cls-2" d="M284.73,129.35v8.38h10.59a1.9,1.9,0,0,0,1.9-1.9v-4.58a1.9,1.9,0,0,0-1.9-1.9Z"/><path class="cls-2" d="M312.68,123.67h15.37a4.73,4.73,0,0,1,4.74,4.73v21.41a4.74,4.74,0,0,1-4.74,4.74H312.68a4.74,4.74,0,0,1-4.74-4.74V128.4A4.73,4.73,0,0,1,312.68,123.67Z"/><rect class="cls-2" x="312.68" y="128.4" width="15.36" height="21.41" rx="1.9"/><path class="cls-2" d="M343.22,154.56h13.11a4.75,4.75,0,0,0,4.75-4.75v-26h-4.59v23.28a1.9,1.9,0,0,1-1.9,1.9h-9.71a1.9,1.9,0,0,1-1.9-1.9V123.84h-4.5v26A4.75,4.75,0,0,0,343.22,154.56Z"/><path class="cls-2" d="M366.77,123.67v30.88H371V142.7h12.57a4.75,4.75,0,0,0,4.74-4.75V128.4a4.73,4.73,0,0,0-4.74-4.73Z"/><path class="cls-2" d="M371.27,128.85v8.74h11.09a1.9,1.9,0,0,0,1.9-1.89v-4.95a1.9,1.9,0,0,0-1.9-1.9Z"/><path class="cls-2" d="M403.53,93.88l-.15-44.22h8.74V96.53a8.67,8.67,0,0,1-8.68,8.47H387a8.68,8.68,0,0,1-8.69-8.68v-15l8.39-3.46v16a1.74,1.74,0,0,0,1.73,1.74h13.38a1.75,1.75,0,0,0,1.74-1.74Z"/></g></svg>