<svg id="圖層_1" data-name="圖層 1" xmlns="http://www.w3.org/2000/svg" viewBox="0 0 908.28 300.71">
  <defs>
    <style>
      .cls-1 {
        fill: #231916;
      }

      .cls-2 {
        fill: #f0db69;
        stroke: #f0db69;
        stroke-linecap: round;
        stroke-linejoin: round;
        stroke-width: 0.71px;
      }
    </style>
  </defs>
  <title>logo2</title>
  <g>
    <g>
      <path class="cls-1" d="M91.19,135.7l-11.25-2a5.35,5.35,0,0,0-5.17,2,5.19,5.19,0,0,0-1,2.32c-.46,2.6-1.73,9.91-2.19,12.51a5,5,0,0,0,.16,2.53,5.38,5.38,0,0,0,4.18,3.64l9.72,1.7a5.34,5.34,0,0,0,4.75-1.54,5.52,5.52,0,0,0,1.45-3l.45-2.6L89,150.77l-.78,4.41a.31.31,0,0,1-.35.26l-13-2.28a.3.3,0,0,1-.2-.13.36.36,0,0,1,0-.23L77.35,137a.31.31,0,0,1,.31-.25h0l11,1.93a.31.31,0,0,1,.22.15l43.55,75.43,3.87-6.71L94.91,135.7Z" transform="translate(-13.26 -11.85)"/>
      <path class="cls-1" d="M178.2,135.7H165.69a1.21,1.21,0,0,1-.94-.44,1.17,1.17,0,0,1-.29-.89,1.26,1.26,0,0,1,.42-.83,6.2,6.2,0,0,0,2.38-4.61v-17.6a.63.63,0,0,0-.63-.63H141.26v5H160a1.25,1.25,0,0,1,1.25,1.25v12.44a.31.31,0,0,1-.31.31H120.51a1.25,1.25,0,0,1-1.25-1.25V97a1.24,1.24,0,0,1,1.25-1.25H161a.31.31,0,0,1,.31.31v4.38a.63.63,0,0,0,.83.6l4.74-1.66a.61.61,0,0,0,.43-.59V95.79a5.09,5.09,0,0,0-5.09-5.09H118.34a5.08,5.08,0,0,0-5.08,5.09v34a4.39,4.39,0,0,0,2.24,3.64,1.26,1.26,0,0,1,.58,1.06,1.25,1.25,0,0,1-1.24,1.24H103l37.28,64.84L176,138.42a.29.29,0,0,1,.25-.15.33.33,0,0,1,.27.12l9.58,13.09a.32.32,0,0,1,.06.23.3.3,0,0,1-.12.2l-10.38,7.67a.32.32,0,0,1-.23.06.31.31,0,0,1-.2-.13l-2.83-3.86-2.66,2,2.77,3.79a2.89,2.89,0,0,0,.67.68,4,4,0,0,0,4.66,0l10.09-7.45a3.1,3.1,0,0,0,.7-.7,4,4,0,0,0,0-4.65L178.87,136A.85.85,0,0,0,178.2,135.7Zm-14.67,11.7L143,182.9a3.25,3.25,0,0,1-1.15,1.15,3.1,3.1,0,0,1-1.56.42,3.3,3.3,0,0,1-.82-.11,3.13,3.13,0,0,1-1.9-1.46l-20.49-35.5a3.14,3.14,0,0,1,.67-4,3.18,3.18,0,0,1,2.14-.75h40.89a3.21,3.21,0,0,1,1.57.42A3.13,3.13,0,0,1,163.53,147.4Z" transform="translate(-13.26 -11.85)"/>
      <path class="cls-1" d="M216.32,142.09A84.64,84.64,0,0,0,195,90.48a.3.3,0,0,1,0-.42L219,66l-6.14-6.14L188.81,83.91a.29.29,0,0,1-.42,0,84.64,84.64,0,0,0-51.61-21.37,1.63,1.63,0,0,1-.52-.31V27.7h-9V62.24s.41.3.25.31A84.64,84.64,0,0,0,75.9,83.92a.29.29,0,0,1-.42,0L51.4,59.84,45.26,66,69.34,90.06a.31.31,0,0,1,0,.42A84.59,84.59,0,0,0,48,142.09c0,.16-.14.29-.31.61H13.26v9h34.4s.3-.5.31-.34A84.59,84.59,0,0,0,69.35,203a.31.31,0,0,1,0,.42L45.26,227.47l6.14,6.14,24.08-24.08a.31.31,0,0,1,.42,0,84.59,84.59,0,0,0,51.61,21.38c.16,0,.29.14-.25.31V265.7h9V231.21a1.63,1.63,0,0,1,.52-.31,84.59,84.59,0,0,0,51.61-21.38.31.31,0,0,1,.42,0l24.08,24.08,6.14-6.14L195,203.39a.3.3,0,0,1,0-.42,84.64,84.64,0,0,0,21.37-51.61c0-.16.15-.29.31.34h33.63v-9H216.63C216.47,142.38,216.33,142.25,216.32,142.09Zm-84.17,81.09a76.46,76.46,0,1,1,76.46-76.46A76.56,76.56,0,0,1,132.15,223.18Z" transform="translate(-13.26 -11.85)"/>
      <path d="M132.15,70.26a76.46,76.46,0,1,0,76.46,76.46A76.56,76.56,0,0,0,132.15,70.26Zm0,152.3A75.84,75.84,0,1,1,208,146.72,75.93,75.93,0,0,1,132.15,222.56Z" transform="translate(-13.26 -11.85)"/>
      <path d="M251,141.7H217.66a84.77,84.77,0,0,0-21.48-51.39l24.26-24a.31.31,0,0,0,0-.44l-6.63-6.57a.31.31,0,0,0-.44,0L189.11,83.31A86.25,86.25,0,0,0,137.26,62V28a.31.31,0,0,0-.31-.31h-9.38a.31.31,0,0,0-.31.31v33.3A84.65,84.65,0,0,0,75.87,82.78L51.82,58.52a.31.31,0,0,0-.44,0l-6.57,6.63a.31.31,0,0,0,0,.44l24,24.26A86.25,86.25,0,0,0,47.57,141.7h-34a.31.31,0,0,0-.31.31v9.38a.31.31,0,0,0,.31.31H46.86a84.67,84.67,0,0,0,21.47,51.39l-24.26,24a.29.29,0,0,0-.09.22.31.31,0,0,0,.09.22l6.63,6.57a.31.31,0,0,0,.44,0L75.4,210.1a86.38,86.38,0,0,0,51.86,21.29v34a.31.31,0,0,0,.31.31H137a.31.31,0,0,0,.31-.31V232.1a84.66,84.66,0,0,0,51.38-21.48l24.05,24.26a.31.31,0,0,0,.44,0l6.57-6.63a.28.28,0,0,0,.09-.22.31.31,0,0,0-.09-.22l-24-24.26a86.2,86.2,0,0,0,21.29-51.85h34a.31.31,0,0,0,.31-.31V142A.31.31,0,0,0,251,141.7Zm-.69,9H216.63a3,3,0,0,0-.31.66A84.64,84.64,0,0,1,195,203a.3.3,0,0,0,0,.42L219,227.47l-6.14,6.14-24.08-24.08a.31.31,0,0,0-.42,0,84.59,84.59,0,0,1-51.61,21.38c-.16,0-.29.14-.52.31V264.7h-9V231.21s.41-.3.25-.31A84.59,84.59,0,0,1,75.9,209.52a.31.31,0,0,0-.42,0L51.4,233.61l-6.14-6.14,24.08-24.08a.31.31,0,0,0,0-.42A84.59,84.59,0,0,1,48,151.36c0-.16-.14-.29-.31.34H13.26v-9h34.4a2.4,2.4,0,0,0,.31-.61A84.59,84.59,0,0,1,69.35,90.48a.31.31,0,0,0,0-.42L45.26,66l6.14-6.14L75.48,83.91a.29.29,0,0,0,.42,0,84.64,84.64,0,0,1,51.61-21.37c.16,0,.29-.15-.25-.31V28.7h9V62.24a1.63,1.63,0,0,0,.52.31,84.64,84.64,0,0,1,51.61,21.37.29.29,0,0,0,.42,0l24.08-24.07L219,66,195,90.06a.3.3,0,0,0,0,.42,84.64,84.64,0,0,1,21.37,51.61c0,.16.15.29.31.61h33.63Z" transform="translate(-13.26 -11.85)"/>
      <path d="M95.08,134.7H91.24l-11.2-2a6,6,0,0,0-5.3,1.72,6.13,6.13,0,0,0-1.61,3.29L71,149.91a6.21,6.21,0,0,0,.4,3.64A6,6,0,0,0,75.81,157l9.72,1.7a5.94,5.94,0,0,0,6.91-4.93l.52-3a.37.37,0,0,0,0-.23.33.33,0,0,0-.21-.13l-3.9-.68a.36.36,0,0,0-.23.05.3.3,0,0,0-.13.2l-.77,4.41-12.41-2.17L77.91,137l10.58,1.85,43.75,75.77a.31.31,0,0,0,.54,0l4.23-7.33a.29.29,0,0,0,0-.31L95.35,134.86A.29.29,0,0,0,95.08,134.7Zm37.43,79.56L89,138.83a.31.31,0,0,0-.22-.15l-11-1.93h0a.31.31,0,0,0-.31.25l-2.76,15.8a.36.36,0,0,0,0,.23.3.3,0,0,0,.2.13l13,2.28a.31.31,0,0,0,.35-.26l.78-4.41,3.29.58-.56,3.23a3.31,3.31,0,0,1-.3.92,5.47,5.47,0,0,1-5.79,2.95l-10.18-1.78a3.14,3.14,0,0,1-.91-.3,5.46,5.46,0,0,1-3-5.79l2.27-13a2.87,2.87,0,0,1,.29-.9,5.45,5.45,0,0,1,5.8-3l11.25,2h3.72l41.47,71.85Z" transform="translate(-13.26 -11.85)"/>
      <path d="M162.39,143.12a3.21,3.21,0,0,0-1.57-.42H119.93a3.18,3.18,0,0,0-2.14.75,3.14,3.14,0,0,0-.67,4l20.49,35.5a3.13,3.13,0,0,0,1.9,1.46,3.3,3.3,0,0,0,.82.11,3.1,3.1,0,0,0,1.56-.42A3.25,3.25,0,0,0,143,182.9l20.49-35.5A3.13,3.13,0,0,0,162.39,143.12Zm.61,3.35L142.5,182a2.54,2.54,0,0,1-.92.92,2.52,2.52,0,0,1-3.43-.92l-20.5-35.5a2.53,2.53,0,0,1,.75-3.33,2.42,2.42,0,0,1,1.46-.44h41a2.52,2.52,0,0,1,2.18,3.77Z" transform="translate(-13.26 -11.85)"/>
      <path d="M179,134.7H166.08a.62.62,0,0,1-.39-1.1,7.43,7.43,0,0,0,2.57-5.8V111A1.25,1.25,0,0,0,167,109.7H140.57a.31.31,0,0,0-.31.31v5.38a.31.31,0,0,0,.31.31h19.06a.63.63,0,0,1,.63.63V129.7H120.89a.63.63,0,0,1-.63-.63V97.33a.63.63,0,0,1,.63-.63h39.37v4.09a1.27,1.27,0,0,0,1.3,1.25,1.34,1.34,0,0,0,.4-.06l5.42-1.69a1.25,1.25,0,0,0,.88-1.19V93.46a3.76,3.76,0,0,0-3.76-3.76H116a3.75,3.75,0,0,0-3.75,3.76V130a3.48,3.48,0,0,0,2.36,3.48.63.63,0,0,1,.5.61.64.64,0,0,1-.64.63H101.92a.3.3,0,0,0-.27.16.29.29,0,0,0,0,.31L140,200.93a.29.29,0,0,0,.27.16.32.32,0,0,0,.27-.16l36.24-62.17L186,151.22l-10,7.3-3-4a.16.16,0,0,0-.22,0l-3.32,2.42a.29.29,0,0,0-.07.43l3.13,4.22a2.47,2.47,0,0,0,.53.54,4.71,4.71,0,0,0,5.61.09l10.42-7.59a2.39,2.39,0,0,0,.56-.54,4.61,4.61,0,0,0,.06-5.53l-10-13.48A.86.86,0,0,0,179,134.7Zm9.72,16.36a3.91,3.91,0,0,1-1.54,3.46l-9.52,7.13a4,4,0,0,1-2.54.86,3.75,3.75,0,0,1-2.91-1.57l-2.6-3.59,2.6-1.94,2.75,3.81a.32.32,0,0,0,.2.12.29.29,0,0,0,.22-.06l10.11-7.57a.27.27,0,0,0,.12-.2.33.33,0,0,0,0-.22l-9.34-12.93a.3.3,0,0,0-.26-.13.31.31,0,0,0-.24.16L141,199.74l-36.32-64h10.21a1.24,1.24,0,0,0,.87-2.14,7.11,7.11,0,0,1-2.45-5.06V97.44A6.74,6.74,0,0,1,120,90.7h40.51a6.75,6.75,0,0,1,6.75,6.74v1.32a.63.63,0,0,1-.43.6L162.09,101a.63.63,0,0,1-.83-.6V96a.31.31,0,0,0-.31-.31H120.51A1.25,1.25,0,0,0,119.26,97v32.5a1.24,1.24,0,0,0,1.25,1.25H161a.31.31,0,0,0,.31-.31V117A1.25,1.25,0,0,0,160,115.7H141.26v-5h25.37a.63.63,0,0,1,.63.63V129a6.18,6.18,0,0,1-2.34,4.58,1.25,1.25,0,0,0-.41.83,1.22,1.22,0,0,0,1.21,1.33h12a1.1,1.1,0,0,1,.9.46L188,149A4.12,4.12,0,0,1,188.75,151.06Z" transform="translate(-13.26 -11.85)"/>
    </g>
    <g id="LINE">
      <polygon class="cls-2" points="878.46 205.35 907.93 95.35 866.96 95.35 892.41 0.35 779.29 0.35 698.91 300.35 812.15 300.35 837.61 205.35 878.46 205.35"/>
    </g>
    <g id="LINE-2" data-name="LINE">
      <polygon class="cls-2" points="685.07 300.35 578.71 300.35 659.09 0.35 765.45 0.35 685.07 300.35"/>
    </g>
    <g id="LINE-3" data-name="LINE">
      <polygon class="cls-2" points="567.01 300.35 460.65 300.35 541.03 0.35 647.4 0.35 567.01 300.35"/>
    </g>
    <g id="LINE-4" data-name="LINE">
      <polygon class="cls-2" points="212.09 300.35 325.27 300.35 405.66 0.35 292.48 0.35 212.09 300.35"/>
    </g>
    <g id="LINE-5" data-name="LINE">
      <polygon class="cls-2" points="445.27 300.35 338.91 300.35 419.29 0.35 525.66 0.35 445.27 300.35"/>
    </g>
    <g>
      <polygon class="cls-1" points="473.12 51.85 457.01 51.85 429.12 130.81 401.91 52.85 381.91 52.85 420.66 159.85 435.38 159.85 473.12 51.85"/>
      <path class="cls-1" d="M662.59,64.7H617.92a16.66,16.66,0,0,0-16.66,16.67V155a16.66,16.66,0,0,0,16.66,16.67h44.67A16.67,16.67,0,0,0,679.26,155V135l-16-4.22v17.57a3.34,3.34,0,0,1-3.34,3.33H622.59a3.33,3.33,0,0,1-3.33-3.33V86a3.33,3.33,0,0,1,3.33-3.34h38.33A3.34,3.34,0,0,1,664.26,86v15.2l15-3.22V81.37A16.67,16.67,0,0,0,662.59,64.7Z" transform="translate(-13.26 -11.85)"/>
      <path class="cls-1" d="M513.92,171.7h50.67A16.67,16.67,0,0,0,581.26,155V109.7h-39v16h20.66a3.34,3.34,0,0,1,3.34,3.34v19.33a3.34,3.34,0,0,1-3.34,3.33H517.59a3.33,3.33,0,0,1-3.33-3.33V85a3.33,3.33,0,0,1,3.33-3.34h46.48a3.33,3.33,0,0,1,3.33,3.23l.26,8L581.26,88V79.37A16.67,16.67,0,0,0,564.59,62.7H513.92a16.66,16.66,0,0,0-16.66,16.67V155A16.66,16.66,0,0,0,513.92,171.7Z" transform="translate(-13.26 -11.85)"/>
      <path class="cls-1" d="M482.58,202.7H450.31a10.05,10.05,0,0,0-10.05,10.05v45.9a10.05,10.05,0,0,0,10.05,10.05H480.2a10.05,10.05,0,0,0,10.06-10.05V229.7h-26v11h16a2,2,0,0,1,2,2v10a2,2,0,0,1-2,2h-28a2,2,0,0,1-2-2V215.44A1.73,1.73,0,0,1,452,213.7h28.17a1.75,1.75,0,0,1,1.74,1.67l.2,5.09,9.16-2.39v-6.7A8.68,8.68,0,0,0,482.58,202.7Z" transform="translate(-13.26 -11.85)"/>
      <path class="cls-1" d="M539.2,242.7a10.05,10.05,0,0,0,10.06-10V212.71a10,10,0,0,0-10.06-10h0l-36.91.29V267.7h10v-25h9.1l17.32,25h14.69l-20.73-25Zm-26.94-10v-18h22a4,4,0,0,1,4,4v10a4,4,0,0,1-4,4Z" transform="translate(-13.26 -11.85)"/>
      <path class="cls-1" d="M604.2,202.7H571.31a10.05,10.05,0,0,0-10,10.05v44.9a10.05,10.05,0,0,0,10,10.05H604.2a10.05,10.05,0,0,0,10.06-10.05v-44.9A10.05,10.05,0,0,0,604.2,202.7Zm-4,55h-25a4,4,0,0,1-4-4v-37a4,4,0,0,1,4-4h25a4,4,0,0,1,4,4v37A4,4,0,0,1,600.23,257.7Z" transform="translate(-13.26 -11.85)"/>
      <path class="cls-1" d="M664.26,252.68a4,4,0,0,1-4,4h-21a4,4,0,0,1-4-4v-50h-9v54.95a10.05,10.05,0,0,0,10,10.05H664.2a10.05,10.05,0,0,0,10.06-10.05V202.7h-10Z" transform="translate(-13.26 -11.85)"/>
      <path class="cls-1" d="M722.2,202.7H686.26v65h9v-25H722.2a10.05,10.05,0,0,0,10.06-10v-19.9A10.05,10.05,0,0,0,722.2,202.7Zm-3,30h-24v-19h24a4,4,0,0,1,4,4v11A4,4,0,0,1,719.23,232.7Z" transform="translate(-13.26 -11.85)"/>
      <path class="cls-1" d="M748.26,150.05h0c-.63,1.84-4,3.64-4,3.64H718.59a3.33,3.33,0,0,1-3.33-3.33V119.62l-16,6.64V155a16.66,16.66,0,0,0,16.66,16.67h31.65a16.67,16.67,0,0,0,16.69-16.23V65.7h-17Z" transform="translate(-13.26 -11.85)"/>
    </g>
  </g>
</svg>
